<?xml version="1.0" encoding="utf-8"?>

<!DOCTYPE svg PUBLIC "-//W3C//DTD SVG 1.1//EN" "http://www.w3.org/Graphics/SVG/1.1/DTD/svg11.dtd">
<!-- Uploaded to: SVG Repo, www.svgrepo.com, Generator: SVG Repo Mixer Tools -->
<svg version="1.1" id="_x32_" xmlns="http://www.w3.org/2000/svg" xmlns:xlink="http://www.w3.org/1999/xlink" 
	 viewBox="0 0 512 512"  xml:space="preserve">
<style type="text/css">
	.st0{fill:#000000;}
</style>
<g>
	<polygon class="st0" points="181.574,145.396 330.426,145.396 263.547,68.755 263.547,35.94 279.08,35.94 279.08,20.844 
		263.547,20.844 263.547,0 248.453,0 248.453,20.844 232.933,20.844 232.933,35.94 248.453,35.94 248.453,68.755 	"/>
	<path class="st0" d="M330.426,283.158V161.24H181.574v121.918l-120.665,94.19l16.263,20.825l9.815-7.667V512h52.235h71.508h90.555
		h123.742v-13.443v-108.05l9.816,7.667l16.249-20.825L330.426,283.158z M170.167,471.909h-37.723v-43.865
		c0-10.412,8.449-18.862,18.862-18.862s18.862,8.449,18.862,18.862V471.909z M237.151,215.816c0-10.419,8.436-18.862,18.849-18.862
		c10.412,0,18.862,8.442,18.862,18.862v47.639h-37.711V215.816z M250.35,498.557h-39.62V372.4h39.62V498.557z M301.285,498.557
		h-39.62V372.4h39.62V498.557z M379.557,471.909h-37.711v-43.865c0-10.412,8.436-18.862,18.862-18.862
		c10.412,0,18.849,8.449,18.849,18.862V471.909z"/>
	<rect x="234.936" y="431.804" class="st0" width="6.287" height="15.088"/>
	<rect x="270.777" y="431.804" class="st0" width="6.287" height="15.088"/>
</g>
</svg>