<?xml version="1.0" encoding="utf-8"?>

<!DOCTYPE svg PUBLIC "-//W3C//DTD SVG 1.1//EN" "http://www.w3.org/Graphics/SVG/1.1/DTD/svg11.dtd">
<!-- Uploaded to: SVG Repo, www.svgrepo.com, Generator: SVG Repo Mixer Tools -->
<svg version="1.1" id="_x32_" xmlns="http://www.w3.org/2000/svg" xmlns:xlink="http://www.w3.org/1999/xlink" 
	 viewBox="0 0 512 512"  xml:space="preserve">
<style type="text/css">
	.st0{fill:#000000;}
</style>
<g>
	<rect x="257.48" y="138.531" class="st0" width="5.162" height="6.884"/>
	<path class="st0" d="M432.688,117.407c-22.362,6.093-31.274,9.144-51.5,6.093C320.731,114.382,342.894,0,256.001,0
		c-86.898,0-64.723,114.382-125.193,123.5c-20.222,3.051-29.133,0-51.5-6.093c-21.207-5.794-51.538,11.331-27.995,42.671
		c17.837,23.759,48.058,49.372,98.208,64.876c-1.634,1.313-3.014,3.334-3.945,6.426c-4.635,15.454,4.884,33.245,19.544,45.323
		c2.938,43.436,30.097,41.74,30.097,76.248c0,36.47-103.333,32.414-103.333,110.424c0,42.547,164.115,48.624,164.115,48.624
		s164.11-6.076,164.11-48.624c0-78.01-103.328-73.954-103.328-110.424c0-34.508,27.159-32.812,30.097-76.248
		c14.656-12.078,24.175-29.869,19.537-45.323c-0.931-3.092-2.311-5.113-3.94-6.426c50.145-15.504,80.372-41.117,98.212-64.876
		C484.23,128.738,453.895,111.613,432.688,117.407z M222.37,102.61c0-12.993,9.934-33.627,33.631-33.627
		c23.688,0,33.63,20.634,33.63,33.627c0,12.994,0,16.053,0,19.877c0,3.824-6.118,12.229-12.229,8.405c0,0,0,8.596,0,10.89
		c0,2.294-4.585,11.472-21.402,11.472c-16.814,0-21.402-9.178-21.402-11.472c0-2.294,0-10.89,0-10.89
		c-6.115,3.824-12.229-4.581-12.229-8.405C222.37,118.663,222.37,115.603,222.37,102.61z M236.34,181.402
		c-0.902,1.047-1.152,2.91-1.26,3.974c-0.22,2.062-1.475,3.957-3.482,4.888c-3.048,1.422-6.676,0.108-8.089-2.934
		c-0.782-1.654-0.724-3.459-0.054-5.005c-1.617-0.474-3.034-1.596-3.807-3.234c-1.422-3.051-0.104-6.683,2.943-8.114
		c2.007-0.931,4.264-0.673,5.976,0.482c0.886,0.598,2.486,1.605,3.862,1.58l9.066-4.24l10.906,5.097L236.34,181.402z
		 M292.35,179.091c-0.765,1.646-2.194,2.76-3.808,3.234c0.673,1.546,0.731,3.358-0.042,5.005c-1.422,3.051-5.045,4.356-8.096,2.934
		c-2.004-0.931-3.267-2.826-3.475-4.888c-0.112-1.064-0.362-2.926-1.268-3.965l-49.842-23.286c-1.376-0.033-2.968,0.982-3.857,1.572
		c-1.716,1.155-3.978,1.404-5.985,0.474c-3.042-1.43-4.36-5.055-2.939-8.106c0.769-1.638,2.19-2.76,3.807-3.242
		c-0.673-1.546-0.727-3.35,0.046-4.996c1.426-3.042,5.042-4.364,8.093-2.943c2.007,0.948,3.267,2.835,3.479,4.889
		c0.112,1.064,0.366,2.934,1.263,3.973l49.846,23.294c1.38,0.025,2.968-0.982,3.866-1.58c1.713-1.155,3.974-1.404,5.969-0.473
		C292.458,172.408,293.779,176.04,292.35,179.091z M296.024,160.162c-2.012,0.939-4.272,0.69-5.985-0.466
		c-0.881-0.598-2.477-1.605-3.857-1.572l-16.074,7.499l-10.915-5.088l23.081-10.79c0.906-1.047,1.147-2.909,1.263-3.973
		c0.216-2.054,1.48-3.949,3.484-4.889c3.034-1.422,6.676-0.108,8.089,2.943c0.773,1.646,0.715,3.45,0.05,4.996
		c1.612,0.474,3.034,1.604,3.807,3.242C300.397,155.116,299.066,158.74,296.024,160.162z"/>
	<path class="st0" d="M265.602,145.415h2.996c1.198,0,2.166-0.973,2.166-2.162v-4.722h-5.162V145.415z"/>
	<rect x="249.363" y="129.553" class="st0" width="5.158" height="6.884"/>
	<rect x="257.48" y="129.553" class="st0" width="5.162" height="6.884"/>
	<path class="st0" d="M241.241,143.253c0,1.188,0.972,2.162,2.17,2.162h2.988v-6.884h-5.158V143.253z"/>
	<path class="st0" d="M241.241,131.723v4.714h5.158v-6.884h-2.988C242.213,129.553,241.241,130.525,241.241,131.723z"/>
	<rect x="249.363" y="138.531" class="st0" width="5.158" height="6.884"/>
	<path class="st0" d="M268.599,129.553h-2.996v6.884h5.162v-4.714C270.764,130.525,269.796,129.553,268.599,129.553z"/>
	<path class="st0" d="M269.38,116.119c4.743,0,8.596-3.858,8.596-8.605c0-4.747-3.853-8.596-8.596-8.596
		c-4.751,0-8.604,3.849-8.604,8.596C260.776,112.261,264.629,116.119,269.38,116.119z"/>
	<path class="st0" d="M242.629,116.119c4.742,0,8.595-3.858,8.595-8.605c0-4.747-3.853-8.596-8.595-8.596
		c-4.751,0-8.605,3.849-8.605,8.596C234.024,112.261,237.878,116.119,242.629,116.119z"/>
	<path class="st0" d="M256.001,121.763c1.184,5.022,6.21,2.062,4.73-0.299l-4.73-7.39l-4.73,7.39
		C249.795,123.825,254.82,126.785,256.001,121.763z"/>
</g>
</svg>