<?xml version="1.0" encoding="iso-8859-1"?>
<!-- Uploaded to: SVG Repo, www.svgrepo.com, Generator: SVG Repo Mixer Tools -->
<svg fill="#000000" version="1.1" id="Layer_1" xmlns="http://www.w3.org/2000/svg" xmlns:xlink="http://www.w3.org/1999/xlink" 
	 viewBox="0 0 512.001 512.001" xml:space="preserve">
<g>
	<g>
		<g>
			<polygon points="199.819,231.895 215.444,231.895 215.444,198.65 223.637,198.65 223.637,183.026 183.623,183.026 
				183.623,198.65 199.819,198.65 			"/>
			<polygon points="295.856,231.895 311.48,231.895 311.48,198.65 327.677,198.65 327.677,183.026 287.662,183.026 287.662,198.65 
				295.856,198.65 			"/>
			<rect x="319.67" y="296.108" width="16.006" height="15.625"/>
			<rect x="327.68" y="320.118" width="16.006" height="15.625"/>
			<rect x="303.67" y="352.128" width="16.006" height="15.625"/>
			<rect x="263.65" y="344.128" width="16.006" height="15.625"/>
			<rect x="231.64" y="344.128" width="16.006" height="15.625"/>
			<rect x="191.631" y="352.128" width="16.006" height="15.625"/>
			<rect x="271.66" y="368.138" width="16.006" height="15.625"/>
			<rect x="223.641" y="368.138" width="16.006" height="15.625"/>
			<rect x="343.68" y="296.108" width="16.006" height="15.625"/>
			<rect x="151.611" y="296.108" width="16.006" height="15.625"/>
			<rect x="167.621" y="320.118" width="16.006" height="15.625"/>
			<rect x="175.621" y="296.108" width="16.006" height="15.625"/>
			<path d="M471.177,391.517c-23.905-31.599-57.223-55.726-94.474-68.574c4.852-13.461,7.504-27.958,7.504-43.062l-0.2-48.183
				c17.405-0.167,31.514-14.37,31.514-31.814c0-17.532-14.252-31.797-31.778-31.82l-0.201-48.401h7.971V86.676
				c13.78-3.492,24.009-15.997,24.009-30.848c0-17.409-14.053-31.598-31.411-31.818L141.675,0.144l-0.151-0.014
				c-11.756-0.929-23.46,3.129-32.119,11.132c-8.659,8.003-13.625,19.354-13.625,31.143c0,11.224,3.852,22.443,10.57,30.782
				c3.819,4.741,8.384,8.393,13.438,10.844v35.63h8.004v48.4h-0.191c-17.547,0-31.821,14.276-31.821,31.821
				c0,17.545,14.275,31.821,31.821,31.821h0.192v48.208c0,15.097,2.636,29.587,7.462,43.044
				C98.018,335.81,64.716,359.93,40.821,391.52C14.406,426.44,0.443,468.1,0.443,512h15.625c0-0.064,0.002-0.127,0.002-0.191h88.86
				V512h15.625v-56.212h7.747v-15.625h-23.371v32.012H20.357c3.191-14.553,8.141-28.614,14.78-41.964
				c5.236,10.41,16.015,17.573,28.441,17.573c17.546,0,31.821-14.275,31.821-31.821c0-16.237-12.227-29.664-27.956-31.578
				c20.52-21.298,46.088-37.596,74.003-47.029c8.316,16.468,20.092,30.901,34.365,42.344v12.255
				c0,18.201,6.287,36.007,17.704,50.138c7.607,9.416,17.28,16.957,28.111,22.079h-17.83c-6.605,0-11.979,5.374-11.979,11.979
				v35.658h51.664c6.605,0,11.979-5.374,11.979-11.979v-20.033h0.38v20.033c0,6.605,5.374,11.979,11.979,11.979h51.664V476.15
				c0-6.605-5.374-11.979-11.979-11.979h-17.832c10.826-5.119,20.493-12.653,28.099-22.061
				c11.426-14.135,17.718-31.948,17.718-50.156v-11.907c14.552-11.502,26.547-26.069,34.996-42.715
				c27.907,9.419,53.472,25.695,73.997,46.974c-16.031,1.628-28.581,15.205-28.581,31.658c0,17.547,14.275,31.821,31.821,31.821
				c12.708,0,23.695-7.489,28.791-18.285c6.819,13.56,11.882,27.864,15.13,42.675h-83.874v-32.012h-23.374v15.625h7.747v56.212
				h15.625v-0.191h88.162c0,0.064,0.002,0.127,0.002,0.191h15.625C511.556,468.099,497.593,426.437,471.177,391.517z
				 M399.895,199.882c0,8.849-7.137,16.054-15.954,16.185l-0.134-32.376C392.687,183.749,399.895,190.988,399.895,199.882z
				 M104.93,487.801v8.384H16.735c0.237-2.808,0.54-5.603,0.901-8.384H104.93z M79.774,415.964c0,8.931-7.266,16.197-16.196,16.197
				c-8.931,0-16.198-7.265-16.198-16.197c0-8.931,7.266-16.197,16.198-16.197C72.507,399.768,79.774,407.034,79.774,415.964z
				 M127.793,216.079h-0.192c-8.93,0-16.197-7.266-16.197-16.196c0-8.93,7.267-16.197,16.197-16.197h0.192V216.079z M111.405,42.406
				c0-7.555,3.056-14.54,8.605-19.668c5.012-4.632,11.373-7.117,18.107-7.117c0.698,0,1.402,0.027,2.105,0.081l242.712,23.891
				l0.765,0.038c8.93,0,16.197,7.266,16.197,16.197c0,8.93-7.267,16.196-16.197,16.196H135.605
				C120.657,72.025,111.405,56.65,111.405,42.406z M191.816,87.65v59.577l-8.194-4.097l-8.194,4.097V87.65H191.816z
				 M135.413,104.037V87.65h0.192h24.199v16.387H135.413z M205.669,432.276c-9.311-11.527-14.234-25.469-14.234-40.32v-1.518
				c2.761,1.61,5.587,3.123,8.475,4.528c1.108,20.522,13.465,38.776,31.922,47.486v9.136
				C221.686,447.52,212.611,440.87,205.669,432.276z M239.835,496.185h-32.394v-16.387h32.394V496.185z M255.84,464.173h-0.38
				h-8.004v-24.391h16.387v24.391H255.84z M241.727,424.158c-2.485,0-4.753,0.927-6.493,2.446
				c-9.287-5.482-15.986-14.504-18.59-24.924c12.304,3.95,25.409,6.091,39.005,6.091c13.586,0,26.683-2.113,38.985-6.017
				c-2.617,10.387-9.306,19.38-18.569,24.848c-1.741-1.518-4.007-2.445-6.492-2.445H241.727z M303.859,479.798v16.387h-32.394
				v-16.387H303.859z M319.865,391.955L319.865,391.955c-0.001,14.858-4.927,28.806-14.247,40.335
				c-6.942,8.587-16.011,15.233-26.15,19.3v-9.136c18.408-8.688,30.75-26.878,31.912-47.332c2.891-1.388,5.719-2.884,8.485-4.476
				V391.955z M263.463,391.873v-7.921h-15.625v7.918c-58.254-4.026-104.421-52.698-104.421-111.957V119.661h16.387v52.847
				l23.818-11.909l23.818,11.909v-52.847h10.096l8.886,35.543l18.549-9.274l19.648,29.471l27.871-55.74h75.424l0.667,160.252
				C368.582,339.188,322.102,387.871,263.463,391.873z M233.645,119.661h41.377l-12.335,24.671l-12.363-18.547l-13.464,6.732
				L233.645,119.661z M375.886,104.037h-75.584H213.63h-6.189V87.65h168.445V104.037z M447.722,432.161
				c-8.93,0-16.197-7.266-16.197-16.197c0-8.931,7.267-16.197,16.197-16.197c8.931,0,16.198,7.266,16.198,16.197
				C463.92,424.894,456.653,432.161,447.722,432.161z M407.769,496.185v-8.384h86.595c0.362,2.781,0.665,5.576,0.901,8.384H407.769z
				"/>
			<path d="M319.674,343.746v-15.625c-4.518,0-8.194-3.675-8.194-8.194v-8.003c0-17.547-14.275-31.821-31.822-31.821
				c-0.556,0-1.109,0.015-1.66,0.044c0.95-2.569,1.47-5.344,1.47-8.237v-8.003h-15.625v8.003c0,4.518-3.675,8.194-8.194,8.194
				c-4.519,0-8.194-3.676-8.194-8.194v-8.003h-15.625v8.003c0,2.894,0.52,5.669,1.47,8.237c-0.55-0.029-1.104-0.044-1.66-0.044
				c-17.547,0-31.822,14.276-31.822,31.821v8.003c0,4.518-3.675,8.194-8.194,8.194v15.625h40.016
				c9.576,0,18.169-4.257,24.009-10.972c5.838,6.714,14.433,10.972,24.009,10.972H319.674z M231.641,328.121h-17.65
				c0.94-2.556,1.453-5.317,1.453-8.194v-8.003c0-8.931,7.266-16.197,16.198-16.197c8.93,0,16.196,7.267,16.196,16.197
				S240.571,328.121,231.641,328.121z M263.463,311.925c0-8.93,7.266-16.197,16.196-16.197c8.931,0,16.198,7.267,16.198,16.197
				v8.003c0,2.878,0.512,5.638,1.453,8.194h-17.651C270.729,328.121,263.463,320.855,263.463,311.925z"/>
		</g>
	</g>
</g>
</svg>